<svg width="579" height="156" viewBox="0 0 579 156" fill="none" xmlns="http://www.w3.org/2000/svg">
<rect width="551.01" height="126" rx="4" transform="matrix(0.99863 -0.052336 -0.0989724 0.99509 22.172 29.6471)" fill="#0D5984" fill-opacity="0.3"/>
<path d="M3.79688 116V110.094L11.4375 108.781V55.0156L3.79688 53.7031V47.75H11.4375H20.6719H28.3125V53.7031L20.6719 55.0156V108.922H44.8125L45.8906 98.1406H52.9688V116H3.79688ZM77.5312 116.984C72.25 116.984 68.2344 115.703 65.4844 113.141C62.7344 110.547 61.3594 106.906 61.3594 102.219C61.3594 99 62.2344 96.2031 63.9844 93.8281C65.7656 91.4219 68.3281 89.5625 71.6719 88.25C75.0156 86.9062 79.0156 86.2344 83.6719 86.2344H92.7188V81.2656C92.7188 78.2031 91.7812 75.8281 89.9062 74.1406C88.0625 72.4531 85.4531 71.6094 82.0781 71.6094C79.9531 71.6094 78.1094 71.875 76.5469 72.4062C74.9844 72.9062 73.5625 73.6094 72.2812 74.5156L71.2969 81.5938H64.1719V69.9688C66.4531 68.125 69.1094 66.7344 72.1406 65.7969C75.1719 64.8281 78.5312 64.3438 82.2188 64.3438C88.375 64.3438 93.2031 65.8125 96.7031 68.75C100.203 71.6875 101.953 75.8906 101.953 81.3594V105.781C101.953 106.438 101.953 107.078 101.953 107.703C101.984 108.328 102.031 108.953 102.094 109.578L107.016 110.094V116H93.75C93.4688 114.625 93.25 113.391 93.0938 112.297C92.9375 111.203 92.8281 110.109 92.7656 109.016C90.9844 111.297 88.75 113.203 86.0625 114.734C83.4062 116.234 80.5625 116.984 77.5312 116.984ZM78.8906 109.25C81.9531 109.25 84.75 108.516 87.2812 107.047C89.8125 105.578 91.625 103.812 92.7188 101.75V92.5625H83.3438C79.0938 92.5625 75.9062 93.5781 73.7812 95.6094C71.6562 97.6406 70.5938 99.9062 70.5938 102.406C70.5938 104.625 71.2812 106.328 72.6562 107.516C74.0312 108.672 76.1094 109.25 78.8906 109.25ZM132.188 116L118.828 71.8906L113.156 71.2344V65.2812H134.109V71.2344L127.875 72.2656L134.859 97.5312L136.453 103.531H136.734L138.797 97.5312L149.812 65.2812H157.594L168.094 97.4375L170.344 104.562H170.625L172.828 97.4375L179.906 72.2188L173.531 71.2344V65.2812H194.016V71.2344L188.391 72.0312L175.266 116H166.5L156.234 85.5312L153.797 77.375L153.516 77.4219L151.125 85.5312L140.109 116H132.188ZM199.688 116V110.094L207.328 108.781V72.5469L199.688 71.2344V65.2812H215.578L216.234 72.8281C217.922 70.1406 220.031 68.0625 222.562 66.5938C225.125 65.0938 228.031 64.3438 231.281 64.3438C236.75 64.3438 240.984 65.9531 243.984 69.1719C246.984 72.3594 248.484 77.2969 248.484 83.9844V108.781L256.125 110.094V116H231.609V110.094L239.25 108.781V84.1719C239.25 79.7031 238.359 76.5312 236.578 74.6562C234.828 72.7812 232.141 71.8438 228.516 71.8438C225.859 71.8438 223.5 72.4844 221.438 73.7656C219.406 75.0469 217.781 76.7969 216.562 79.0156V108.781L224.203 110.094V116H199.688ZM284.859 116.984C280.172 116.984 276.125 115.891 272.719 113.703C269.344 111.484 266.734 108.438 264.891 104.562C263.047 100.656 262.125 96.2031 262.125 91.2031V90.1719C262.125 85.1719 263.047 80.7344 264.891 76.8594C266.734 72.9531 269.344 69.8906 272.719 67.6719C276.125 65.4531 280.141 64.3438 284.766 64.3438C289.453 64.3438 293.484 65.4531 296.859 67.6719C300.266 69.8906 302.891 72.9375 304.734 76.8125C306.578 80.6875 307.5 85.1406 307.5 90.1719V91.2031C307.5 96.2344 306.578 100.703 304.734 104.609C302.891 108.484 300.281 111.516 296.906 113.703C293.531 115.891 289.516 116.984 284.859 116.984ZM284.859 109.766C287.797 109.766 290.25 108.969 292.219 107.375C294.219 105.75 295.719 103.547 296.719 100.766C297.75 97.9531 298.266 94.7656 298.266 91.2031V90.1719C298.266 86.6094 297.75 83.4375 296.719 80.6562C295.719 77.8438 294.219 75.6406 292.219 74.0469C290.219 72.4219 287.734 71.6094 284.766 71.6094C281.828 71.6094 279.359 72.4219 277.359 74.0469C275.359 75.6406 273.859 77.8438 272.859 80.6562C271.859 83.4375 271.359 86.6094 271.359 90.1719V91.2031C271.359 94.7656 271.859 97.9531 272.859 100.766C273.859 103.547 275.359 105.75 277.359 107.375C279.391 108.969 281.891 109.766 284.859 109.766ZM332.531 116.797C328.781 116.797 325.797 115.703 323.578 113.516C321.391 111.297 320.297 107.766 320.297 102.922V72.125H312.281V65.2812H320.297V53.0469H329.531V65.2812H340.547V72.125H329.531V102.922C329.531 105.359 330.016 107.156 330.984 108.312C331.953 109.469 333.25 110.047 334.875 110.047C335.969 110.047 337.188 109.953 338.531 109.766C339.875 109.547 340.922 109.359 341.672 109.203L342.938 115.25C341.594 115.656 339.938 116.016 337.969 116.328C336.031 116.641 334.219 116.797 332.531 116.797ZM365.25 116.984C359.969 116.984 355.953 115.703 353.203 113.141C350.453 110.547 349.078 106.906 349.078 102.219C349.078 99 349.953 96.2031 351.703 93.8281C353.484 91.4219 356.047 89.5625 359.391 88.25C362.734 86.9062 366.734 86.2344 371.391 86.2344H380.438V81.2656C380.438 78.2031 379.5 75.8281 377.625 74.1406C375.781 72.4531 373.172 71.6094 369.797 71.6094C367.672 71.6094 365.828 71.875 364.266 72.4062C362.703 72.9062 361.281 73.6094 360 74.5156L359.016 81.5938H351.891V69.9688C354.172 68.125 356.828 66.7344 359.859 65.7969C362.891 64.8281 366.25 64.3438 369.938 64.3438C376.094 64.3438 380.922 65.8125 384.422 68.75C387.922 71.6875 389.672 75.8906 389.672 81.3594V105.781C389.672 106.438 389.672 107.078 389.672 107.703C389.703 108.328 389.75 108.953 389.812 109.578L394.734 110.094V116H381.469C381.188 114.625 380.969 113.391 380.812 112.297C380.656 111.203 380.547 110.109 380.484 109.016C378.703 111.297 376.469 113.203 373.781 114.734C371.125 116.234 368.281 116.984 365.25 116.984ZM366.609 109.25C369.672 109.25 372.469 108.516 375 107.047C377.531 105.578 379.344 103.812 380.438 101.75V92.5625H371.062C366.812 92.5625 363.625 93.5781 361.5 95.6094C359.375 97.6406 358.312 99.9062 358.312 102.406C358.312 104.625 359 106.328 360.375 107.516C361.75 108.672 363.828 109.25 366.609 109.25ZM419.812 116.797C416.062 116.797 413.078 115.703 410.859 113.516C408.672 111.297 407.578 107.766 407.578 102.922V72.125H399.562V65.2812H407.578V53.0469H416.812V65.2812H427.828V72.125H416.812V102.922C416.812 105.359 417.297 107.156 418.266 108.312C419.234 109.469 420.531 110.047 422.156 110.047C423.25 110.047 424.469 109.953 425.812 109.766C427.156 109.547 428.203 109.359 428.953 109.203L430.219 115.25C428.875 115.656 427.219 116.016 425.25 116.328C423.312 116.641 421.5 116.797 419.812 116.797ZM435.797 116V110.094L443.438 108.781V72.5469L435.797 71.2344V65.2812H452.672V108.781L460.312 110.094V116H435.797ZM442.969 52.7656V42.875H452.672V52.7656H442.969ZM489.609 116.984C484.922 116.984 480.875 115.891 477.469 113.703C474.094 111.484 471.484 108.438 469.641 104.562C467.797 100.656 466.875 96.2031 466.875 91.2031V90.1719C466.875 85.1719 467.797 80.7344 469.641 76.8594C471.484 72.9531 474.094 69.8906 477.469 67.6719C480.875 65.4531 484.891 64.3438 489.516 64.3438C494.203 64.3438 498.234 65.4531 501.609 67.6719C505.016 69.8906 507.641 72.9375 509.484 76.8125C511.328 80.6875 512.25 85.1406 512.25 90.1719V91.2031C512.25 96.2344 511.328 100.703 509.484 104.609C507.641 108.484 505.031 111.516 501.656 113.703C498.281 115.891 494.266 116.984 489.609 116.984ZM489.609 109.766C492.547 109.766 495 108.969 496.969 107.375C498.969 105.75 500.469 103.547 501.469 100.766C502.5 97.9531 503.016 94.7656 503.016 91.2031V90.1719C503.016 86.6094 502.5 83.4375 501.469 80.6562C500.469 77.8438 498.969 75.6406 496.969 74.0469C494.969 72.4219 492.484 71.6094 489.516 71.6094C486.578 71.6094 484.109 72.4219 482.109 74.0469C480.109 75.6406 478.609 77.8438 477.609 80.6562C476.609 83.4375 476.109 86.6094 476.109 90.1719V91.2031C476.109 94.7656 476.609 97.9531 477.609 100.766C478.609 103.547 480.109 105.75 482.109 107.375C484.141 108.969 486.641 109.766 489.609 109.766ZM519.375 116V110.094L527.016 108.781V72.5469L519.375 71.2344V65.2812H535.266L535.922 72.8281C537.609 70.1406 539.719 68.0625 542.25 66.5938C544.812 65.0938 547.719 64.3438 550.969 64.3438C556.438 64.3438 560.672 65.9531 563.672 69.1719C566.672 72.3594 568.172 77.2969 568.172 83.9844V108.781L575.812 110.094V116H551.297V110.094L558.938 108.781V84.1719C558.938 79.7031 558.047 76.5312 556.266 74.6562C554.516 72.7812 551.828 71.8438 548.203 71.8438C545.547 71.8438 543.188 72.4844 541.125 73.7656C539.094 75.0469 537.469 76.7969 536.25 79.0156V108.781L543.891 110.094V116H519.375Z" fill="#0D5984"/>
</svg>
