<?xml version="1.0" encoding="UTF-8"?>
<svg id="Layer_1" xmlns="http://www.w3.org/2000/svg" viewBox="0 0 269.4 54"><defs><style>.cls-1{fill:#8b5e3c;}.cls-2{fill:none;}.cls-3{fill:#e8e751;}.cls-4{opacity:.3;}</style></defs><g class="cls-4"><path class="cls-3" d="m4.79,38.67c.33-.02.66-.04.99-.06l-3.25.17c14.05-.72,28.07.61,42.04,1.98s27.98,2.61,42,3.53c28.02,1.83,56.13,2.5,84.19,1.22,8.84-.4,17.67-.93,26.48-1.69,9.2-.79,18.2-2,27.17-4.31,6.77-1.74,13.57-4.62,19.88-7.54,3.52-1.58,6.96-3.33,10.31-5.24,2.87-1.5,5.65-3.17,8.33-5l3.83-2.9c1.63-.94,2.51-2.29,2.65-4.04l-1.54-.78c-2.71-.04-5.36.36-7.94,1.2-.93.24-1.87.46-2.81.67l4.69-1.03c-6.39,1.38-12.91,2.02-19.42,2.58s-13.33,1.03-20.01,1.37l3.25-.17c-22.52,1.15-45.08,1.04-67.6.04-22.56-.99-45.01-3.02-67.48-5.16-13.63-1.3-27.16-2.03-40.85-1.23-2.6.43-5.13,1.08-7.61,1.94-3.28.96-6.49,2.11-9.64,3.45-7.05,2.85-14.26,6.2-20.77,10.15l-5.18,3.26c-2.32,1.42-4.34,3.18-6.07,5.27l-.41,1.67c1.42,1.04,3.02,1.24,4.79.61h0Z"/></g><path class="cls-2" d="m40.42,0c6.32,0,9.48,2.66,9.48,7.98,0,3.04-1.14,5.66-3.42,7.86-3.16,3.04-7.96,4.64-14.4,4.8-.44,3.36-.66,7.34-.66,11.94,0,1.12-.14,2.38-.42,3.78,1.4.72,2.76,1.38,4.08,1.98,1.32.6,2.94.9,4.86.9,1,0,1.99-.42,2.97-1.26.98-.84,1.9-1.76,2.76-2.76.86-1,1.63-1.92,2.31-2.76.68-.84,1.24-1.26,1.68-1.26.6,0,.9.68.9,2.04,0,2.84-1.32,5.59-3.96,8.25-2.64,2.66-5.86,4.01-9.66,4.05-2.68,0-5.78-1.06-9.3-3.18-2.52,2.68-5.66,4.02-9.42,4.02-2.48,0-4.3-.62-5.46-1.86-1.16-1.24-1.74-2.88-1.74-4.92s.75-3.57,2.25-4.59,3.41-1.53,5.73-1.53c1.24,0,2.4.06,3.48.18,0-4.88.54-9.64,1.62-14.28-1.32-.68-2.45-1.44-3.39-2.28-.94-.84-1.41-1.5-1.41-1.98,0-1.28.28-1.92.84-1.92.8,0,1.63.23,2.49.69.86.46,1.79.81,2.79,1.05,2.48-7.16,5.88-11.78,10.2-13.86,1.52-.72,3.12-1.08,4.8-1.08"/><path class="cls-2" d="m16.84,40.02c.04,1.12.82,1.68,2.34,1.68s2.48-.88,2.88-2.64c-1.12-.56-2.04-.84-2.76-.84-1.6,0-2.42.6-2.46,1.8Z"/><path class="cls-2" d="m40.3,5.88c-3.36,0-5.8,3.2-7.32,9.6,2.88-.24,5.31-1.05,7.29-2.43s2.97-2.77,2.97-4.17c0-2-.98-3-2.94-3Z"/><path class="cls-1" d="m18.22,45.38c-2.18,0-3.77-.52-4.73-1.54-.99-1.06-1.47-2.44-1.47-4.24s.59-2.93,1.81-3.76c1.32-.9,3.06-1.36,5.17-1.36,1.2,0,2.33.06,3.37.17.04,0,.07,0,.11,0,.25,0,.48-.09.67-.25.21-.19.31-.46.33-.75.5-6.43.54-9.51,1.59-14.05.1-.45-.11-.91-.52-1.12-1.24-.64-2.32-1.34-3.18-2.14s-.98-1.06-1.08-1.26c-.25-.85.08-.88.08-.88.56.04,1.16.23,1.78.56.93.5,1.95.88,3.03,1.14.08.02.16.03.23.03.42,0,.8-.26.94-.67,2.38-6.87,5.64-11.34,9.69-13.29,1.37-.65,2.84-.98,4.37-.98,5.79,0,8.48,2.22,8.48,6.98,0,2.78-1.02,5.12-3.11,7.14-2.96,2.85-7.58,4.37-13.73,4.52-.49.01-.9.38-.97.87-.44,3.38-.56,7.43-.82,12.05-.06,1.07-.19,2.2-.25,3.6-.02.45.14.85.52,1.08,1.37.85,2.69,1.54,4.12,2,1.51.48,3.22.99,5.27.99,1.24,0,2.46-.5,3.62-1.5,1.01-.87,1.98-1.83,2.87-2.87.87-1.01,1.46-2.13,2.33-2.78.47-.35.77-.12.8.15.28,2.54-1.23,5.09-3.67,7.55-2.47,2.49-5.4,3.72-8.96,3.75-2.47,0-5.43-1.02-8.77-3.04-.16-.1-.34-.14-.52-.14-.27,0-.53.11-.73.31-2.34,2.49-5.19,3.71-8.69,3.71Zm1.08-8.16c-3.04,0-3.43,1.94-3.46,2.77.03.86.41,2.71,3.34,2.71,1.15,0,3.18-.44,3.86-3.42.1-.45-.12-.91-.53-1.12-1.27-.64-2.32-.95-3.21-.95ZM40.3,4.88c-3.87,0-6.66,3.49-8.29,10.37-.07.31,0,.64.21.88.19.22.47.35.76.35.03,0,.06,0,.08,0,3.04-.25,5.66-1.13,7.78-2.61,2.25-1.57,3.4-3.25,3.4-4.99,0-2.54-1.44-4-3.94-4Z"/><g><path class="cls-1" d="m70.23,25.28c.23.24.34.53.34.88v18c0,.35-.11.63-.34.86-.23.23-.51.34-.86.34s-.63-.11-.86-.34-.34-.51-.34-.86v-2.68c-.67,1.2-1.67,2.21-3,3.04-1.33.83-2.79,1.24-4.36,1.24-1.79,0-3.39-.47-4.82-1.4-1.43-.93-2.55-2.21-3.36-3.84-.81-1.63-1.22-3.45-1.22-5.48s.41-3.85,1.24-5.46c.83-1.61,1.95-2.87,3.38-3.78,1.43-.91,3.01-1.36,4.74-1.36,1.6,0,3.07.39,4.4,1.16,1.33.77,2.33,1.79,3,3.04v-2.48c0-.35.11-.64.34-.88.23-.24.51-.36.86-.36s.63.12.86.36Zm-5.44,17.14c1.11-.73,1.97-1.75,2.6-3.04.63-1.29.94-2.74.94-4.34s-.31-2.96-.94-4.24c-.63-1.28-1.49-2.29-2.6-3.02-1.11-.73-2.35-1.1-3.74-1.1s-2.63.36-3.74,1.08c-1.11.72-1.97,1.71-2.6,2.98-.63,1.27-.94,2.7-.94,4.3s.31,3.05.92,4.34c.61,1.29,1.47,2.31,2.58,3.04,1.11.73,2.37,1.1,3.78,1.1s2.63-.37,3.74-1.1Z"/><path class="cls-1" d="m101.75,24.8c.23.21.34.51.34.88,0,.03-.04.2-.12.52l-6.16,18.4c-.13.24-.31.43-.52.58-.21.15-.44.21-.68.18-.24,0-.45-.07-.64-.2-.19-.13-.33-.32-.44-.56l-5.24-12.32-4.68,12.32c-.11.21-.26.39-.46.54-.2.15-.41.22-.62.22-.27.03-.51-.03-.74-.18-.23-.15-.38-.34-.46-.58l-6.32-18.4c-.08-.16-.12-.33-.12-.52,0-.35.12-.63.36-.86.24-.23.53-.34.88-.34.24,0,.46.07.66.22.2.15.34.34.42.58l5.32,15.96,4.76-11.96c.19-.51.56-.76,1.12-.76s.91.25,1.12.76l5,11.88,5.24-15.88c.16-.53.53-.8,1.12-.8.35,0,.63.11.86.32Z"/><path class="cls-1" d="m121.79,26.62c1.16,1.45,1.74,3.38,1.74,5.78v11.76c0,.35-.12.63-.36.86-.24.23-.52.34-.84.34-.35,0-.63-.11-.86-.34-.23-.23-.34-.51-.34-.86v-11.64c0-1.73-.43-3.14-1.3-4.22s-2.21-1.62-4.02-1.62c-1.15,0-2.23.27-3.26.8-1.03.53-1.86,1.25-2.5,2.14-.64.89-.96,1.86-.96,2.9v11.64c0,.35-.11.63-.34.86-.23.23-.51.34-.86.34s-.63-.11-.86-.34c-.23-.23-.34-.51-.34-.86v-17.92c0-.35.11-.63.34-.86s.51-.34.86-.34.63.11.86.34c.23.23.34.51.34.86v2.2c.72-1.15,1.75-2.1,3.1-2.86,1.35-.76,2.73-1.14,4.14-1.14,2.48,0,4.3.73,5.46,2.18Z"/><path class="cls-1" d="m147.37,40.56c-.88,1.63-2.09,2.9-3.64,3.82-1.55.92-3.27,1.38-5.16,1.38s-3.61-.46-5.16-1.38-2.76-2.19-3.64-3.82c-.88-1.63-1.32-3.44-1.32-5.44s.44-3.81,1.32-5.44c.88-1.63,2.09-2.91,3.64-3.84,1.55-.93,3.27-1.4,5.16-1.4s3.61.47,5.16,1.4c1.55.93,2.76,2.21,3.64,3.84.88,1.63,1.32,3.44,1.32,5.44s-.44,3.81-1.32,5.44Zm-2.08-9.76c-.67-1.28-1.59-2.29-2.78-3.02-1.19-.73-2.5-1.1-3.94-1.1s-2.75.37-3.92,1.1c-1.17.73-2.1,1.74-2.78,3.02-.68,1.28-1.02,2.72-1.02,4.32s.34,3,1.02,4.28c.68,1.28,1.61,2.29,2.78,3.02,1.17.73,2.48,1.1,3.92,1.1s2.75-.36,3.94-1.08c1.19-.72,2.11-1.72,2.78-3,.67-1.28,1-2.72,1-4.32s-.33-3.04-1-4.32Z"/><path class="cls-1" d="m157.61,27.24v13.4c0,1.01.19,1.7.56,2.06s.87.54,1.48.54c.16,0,.36-.03.6-.1.24-.07.43-.1.56-.1.24,0,.45.1.62.3.17.2.26.43.26.7,0,.37-.21.69-.64.94-.43.25-.93.38-1.52.38-.72,0-1.36-.07-1.92-.2-.56-.13-1.1-.53-1.62-1.2-.52-.67-.78-1.73-.78-3.2v-13.52h-2.92c-.32,0-.59-.11-.82-.32-.23-.21-.34-.48-.34-.8s.11-.59.34-.8c.23-.21.5-.32.82-.32h2.92v-4.44c0-.35.11-.63.34-.86.23-.23.51-.34.86-.34s.63.11.86.34c.23.23.34.51.34.86v4.44h4c.29,0,.55.12.78.36.23.24.34.51.34.8,0,.32-.11.58-.32.78-.21.2-.48.3-.8.3h-4Z"/><path class="cls-1" d="m184.63,25.28c.23.24.34.53.34.88v18c0,.35-.11.63-.34.86s-.51.34-.86.34-.63-.11-.86-.34c-.23-.23-.34-.51-.34-.86v-2.68c-.67,1.2-1.67,2.21-3,3.04-1.33.83-2.79,1.24-4.36,1.24-1.79,0-3.39-.47-4.82-1.4s-2.55-2.21-3.36-3.84-1.22-3.45-1.22-5.48.41-3.85,1.24-5.46c.83-1.61,1.95-2.87,3.38-3.78,1.43-.91,3.01-1.36,4.74-1.36,1.6,0,3.07.39,4.4,1.16,1.33.77,2.33,1.79,3,3.04v-2.48c0-.35.11-.64.34-.88.23-.24.51-.36.86-.36s.63.12.86.36Zm-5.44,17.14c1.11-.73,1.97-1.75,2.6-3.04.63-1.29.94-2.74.94-4.34s-.31-2.96-.94-4.24c-.63-1.28-1.49-2.29-2.6-3.02-1.11-.73-2.35-1.1-3.74-1.1s-2.63.36-3.74,1.08c-1.11.72-1.97,1.71-2.6,2.98s-.94,2.7-.94,4.3.31,3.05.92,4.34c.61,1.29,1.47,2.31,2.58,3.04,1.11.73,2.37,1.1,3.78,1.1s2.63-.37,3.74-1.1Z"/><path class="cls-1" d="m195.25,27.24v13.4c0,1.01.19,1.7.56,2.06s.87.54,1.48.54c.16,0,.36-.03.6-.1.24-.07.43-.1.56-.1.24,0,.45.1.62.3.17.2.26.43.26.7,0,.37-.21.69-.64.94-.43.25-.93.38-1.52.38-.72,0-1.36-.07-1.92-.2-.56-.13-1.1-.53-1.62-1.2-.52-.67-.78-1.73-.78-3.2v-13.52h-2.92c-.32,0-.59-.11-.82-.32-.23-.21-.34-.48-.34-.8s.11-.59.34-.8c.23-.21.5-.32.82-.32h2.92v-4.44c0-.35.11-.63.34-.86.23-.23.51-.34.86-.34s.63.11.86.34c.23.23.34.51.34.86v4.44h4c.29,0,.55.12.78.36.23.24.34.51.34.8,0,.32-.11.58-.32.78-.21.2-.48.3-.8.3h-4Z"/><path class="cls-1" d="m204.69,21.5c-.29-.25-.44-.62-.44-1.1v-.4c0-.48.15-.85.46-1.1.31-.25.73-.38,1.26-.38,1.07,0,1.6.49,1.6,1.48v.4c0,.48-.14.85-.42,1.1s-.69.38-1.22.38-.95-.13-1.24-.38Zm2.1,23.52c-.23.23-.51.34-.86.34s-.63-.11-.86-.34-.34-.51-.34-.86v-18.4c0-.35.11-.63.34-.86.23-.23.51-.34.86-.34s.63.11.86.34c.23.23.34.51.34.86v18.4c0,.35-.11.63-.34.86Z"/><path class="cls-1" d="m230.93,40.56c-.88,1.63-2.09,2.9-3.64,3.82-1.55.92-3.27,1.38-5.16,1.38s-3.61-.46-5.16-1.38-2.76-2.19-3.64-3.82c-.88-1.63-1.32-3.44-1.32-5.44s.44-3.81,1.32-5.44c.88-1.63,2.09-2.91,3.64-3.84,1.55-.93,3.27-1.4,5.16-1.4s3.61.47,5.16,1.4c1.55.93,2.76,2.21,3.64,3.84.88,1.63,1.32,3.44,1.32,5.44s-.44,3.81-1.32,5.44Zm-2.08-9.76c-.67-1.28-1.59-2.29-2.78-3.02-1.19-.73-2.5-1.1-3.94-1.1s-2.75.37-3.92,1.1c-1.17.73-2.1,1.74-2.78,3.02-.68,1.28-1.02,2.72-1.02,4.32s.34,3,1.02,4.28c.68,1.28,1.61,2.29,2.78,3.02,1.17.73,2.48,1.1,3.92,1.1s2.75-.36,3.94-1.08c1.19-.72,2.11-1.72,2.78-3,.67-1.28,1-2.72,1-4.32s-.33-3.04-1-4.32Z"/><path class="cls-1" d="m252.27,26.62c1.16,1.45,1.74,3.38,1.74,5.78v11.76c0,.35-.12.63-.36.86-.24.23-.52.34-.84.34-.35,0-.63-.11-.86-.34-.23-.23-.34-.51-.34-.86v-11.64c0-1.73-.43-3.14-1.3-4.22s-2.21-1.62-4.02-1.62c-1.15,0-2.23.27-3.26.8-1.03.53-1.86,1.25-2.5,2.14-.64.89-.96,1.86-.96,2.9v11.64c0,.35-.11.63-.34.86s-.51.34-.86.34-.63-.11-.86-.34-.34-.51-.34-.86v-17.92c0-.35.11-.63.34-.86.23-.23.51-.34.86-.34s.63.11.86.34c.23.23.34.51.34.86v2.2c.72-1.15,1.75-2.1,3.1-2.86,1.35-.76,2.73-1.14,4.14-1.14,2.48,0,4.3.73,5.46,2.18Z"/></g></svg>